<svg id="Layer_1" data-name="Layer 1" xmlns="http://www.w3.org/2000/svg" viewBox="0 0 450 92"><title>generic-cloudflow-logo-reverse-white</title><path d="M111.54,26.85a41.17,41.17,0,0,0-74.61-3.92A25.08,25.08,0,0,0,7.44,47.61,24.83,24.83,0,0,0,8.26,54,20.4,20.4,0,0,0,21.41,90h88a31.61,31.61,0,0,0,2.15-63.15Z" fill="#fff" opacity="0.9"/><path d="M187.46,39.89,182.58,45a11.2,11.2,0,0,0-8.45-3.63,10,10,0,0,0-7.33,3,10.38,10.38,0,0,0-2.9,7.46,10.38,10.38,0,0,0,2.9,7.46,10,10,0,0,0,7.33,3,11.2,11.2,0,0,0,8.45-3.63l4.88,5.08a17.42,17.42,0,0,1-13.33,5.74,17.82,17.82,0,0,1-12.87-5,16.76,16.76,0,0,1-5.21-12.6,16.63,16.63,0,0,1,5.21-12.54,17.87,17.87,0,0,1,12.87-5.08A17.42,17.42,0,0,1,187.46,39.89Z" fill="#fff" opacity="0.8"/><path d="M190.83,22.47h7.92V57.58c0,3.23,1.05,4.62,4,4.62a8.31,8.31,0,0,0,2.37-.27V69a13.93,13.93,0,0,1-3.76.4c-7,0-10.49-3.56-10.49-10.76Z" fill="#fff" opacity="0.8"/><path d="M204.88,51.84a16.82,16.82,0,0,1,5.28-12.54,18.82,18.82,0,0,1,25.74,0,16.78,16.78,0,0,1,5.28,12.54,16.77,16.77,0,0,1-5.28,12.53,18.82,18.82,0,0,1-25.74,0A16.81,16.81,0,0,1,204.88,51.84Zm25.48,7.45a10.24,10.24,0,0,0,3-7.45,10,10,0,0,0-3-7.4,10.45,10.45,0,0,0-14.72,0,10.24,10.24,0,0,0-2.9,7.4,10.47,10.47,0,0,0,2.9,7.45,10.6,10.6,0,0,0,14.72,0Z" fill="#fff" opacity="0.8"/><path d="M243.69,35.2h7.92V54.67c0,4.56,2.44,7.39,6.73,7.39s7.26-3.16,7.26-7.72V35.2h7.92V58.37c0,2.84.66,3.83,2.44,3.83a15.3,15.3,0,0,0,1.65-.14v6.47a11.37,11.37,0,0,1-3.89.53,8.34,8.34,0,0,1-4.88-1.32,6.19,6.19,0,0,1-2.38-3.5c-1.91,3.24-5.28,4.89-10.1,4.89-7.92,0-12.67-5.09-12.67-13.34Z" fill="#fff" opacity="0.8"/><path d="M305,40V22.47h7.92v36c0,2.84.66,3.9,2.44,3.9.47,0,1.06-.07,1.65-.13v6.4a11.37,11.37,0,0,1-3.89.53,8.69,8.69,0,0,1-4.62-1.06,6.12,6.12,0,0,1-2.7-4c-2.31,3.5-6.14,5.22-11.42,5.22a15.79,15.79,0,0,1-11.88-5,17.33,17.33,0,0,1-4.75-12.4,17.09,17.09,0,0,1,4.75-12.35,15.81,15.81,0,0,1,11.88-5C299.72,34.48,303.75,36.85,305,40Zm-2.37,19.07a9.68,9.68,0,0,0,3-7.25,9.69,9.69,0,0,0-3-7.26,9.86,9.86,0,0,0-7.2-2.91,9.56,9.56,0,0,0-7.06,2.91,10.08,10.08,0,0,0-2.77,7.26,10.07,10.07,0,0,0,2.77,7.25A9.56,9.56,0,0,0,295.43,62,9.86,9.86,0,0,0,302.63,59.09Z" fill="#fff" opacity="0.8"/><path d="M325.27,68.47V42.4h-5.42V35.2h5.42V33.55c0-5.08,1.05-7.78,3.63-9.83,1.78-1.45,4.48-2.18,8.25-2.18a17.48,17.48,0,0,1,3.43.27v6.8a10.64,10.64,0,0,0-3-.33c-3,0-4.35,1.32-4.35,4.68V35.2h6.27v7.2h-6.27V68.47Z" fill="#fff"/><path d="M344.6,22.47h7.92V57.58c0,3.23,1.06,4.62,4,4.62a8.34,8.34,0,0,0,2.38-.27V69a13.93,13.93,0,0,1-3.76.4c-7,0-10.5-3.56-10.5-10.76Z" fill="#fff"/><path d="M358.66,51.84a16.78,16.78,0,0,1,5.28-12.54,18.82,18.82,0,0,1,25.74,0A16.78,16.78,0,0,1,395,51.84a16.77,16.77,0,0,1-5.28,12.53,18.82,18.82,0,0,1-25.74,0A16.77,16.77,0,0,1,358.66,51.84Zm25.48,7.45a10.24,10.24,0,0,0,3-7.45,10,10,0,0,0-3-7.4,10.45,10.45,0,0,0-14.72,0,10.24,10.24,0,0,0-2.9,7.4,10.47,10.47,0,0,0,2.9,7.45,10.6,10.6,0,0,0,14.72,0Z" fill="#fff"/><path d="M405.19,68.47,394.1,35.2h7.46l6.93,20.73,6.73-20.73h6L428,55.93l6.93-20.73h7.52L431.26,68.47h-6.14l-6.86-21.06L411.4,68.47Z" fill="#fff"/></svg>