<?xml version="1.0" standalone="no"?>
<!DOCTYPE svg PUBLIC "-//W3C//DTD SVG 20010904//EN"
 "http://www.w3.org/TR/2001/REC-SVG-20010904/DTD/svg10.dtd">
<svg version="1.0" xmlns="http://www.w3.org/2000/svg"
 width="260.000000pt" height="260.000000pt" viewBox="0 0 260.000000 260.000000"
 preserveAspectRatio="xMidYMid meet">
<metadata>
Created by potrace 1.11, written by Peter Selinger 2001-2013
</metadata>
<g transform="translate(0.000000,260.000000) scale(0.100000,-0.100000)"
fill="#000000" stroke="none">
<path d="M29 2401 l-29 -29 0 -731 0 -730 37 -10 c494 -132 1003 -188 1481
-163 392 21 687 67 1045 163 l37 10 0 730 0 731 -29 29 -29 29 -1242 0 -1242
0 -29 -29z"/>
<path d="M0 488 l0 -260 29 -29 29 -29 1242 0 1242 0 29 29 29 29 0 260 0 259
-158 -39 c-380 -93 -748 -138 -1142 -138 -394 0 -762 45 -1142 138 l-158 39 0
-259z"/>
</g>
</svg>
