<?xml version="1.0" standalone="no"?>
<!DOCTYPE svg PUBLIC "-//W3C//DTD SVG 20010904//EN"
 "http://www.w3.org/TR/2001/REC-SVG-20010904/DTD/svg10.dtd">
<svg version="1.0" xmlns="http://www.w3.org/2000/svg"
 width="680.000000pt" height="680.000000pt" viewBox="0 0 680.000000 680.000000"
 preserveAspectRatio="xMidYMid meet">
<metadata>
Created by potrace 1.11, written by Peter Selinger 2001-2013
</metadata>
<g transform="translate(0.000000,680.000000) scale(0.100000,-0.100000)"
fill="#000000" stroke="none">
<path d="M819 5154 c-2 -51 5 -144 15 -189 64 -298 214 -539 484 -775 160
-139 406 -271 572 -305 14 -3 48 -10 75 -16 93 -19 392 -3 495 26 8 2 26 6 40
9 78 13 239 61 444 132 109 38 327 105 389 120 50 12 153 32 202 40 90 14 351
13 440 -2 156 -25 192 -34 325 -80 52 -18 95 -32 97 -30 7 7 -165 242 -231
315 -210 231 -373 349 -594 430 -81 30 -234 65 -337 76 -57 6 -320 7 -395 1
-50 -4 -161 -18 -185 -22 -11 -3 -36 -7 -55 -10 -19 -3 -51 -9 -70 -14 -19 -5
-46 -11 -60 -14 -14 -2 -54 -12 -90 -21 -36 -9 -72 -18 -80 -20 -8 -2 -44 -11
-80 -20 -223 -58 -432 -82 -537 -61 -16 3 -48 8 -73 11 -200 28 -495 193 -772
433 -17 14 -18 13 -19 -14z"/>
<path d="M604 3782 c4 -68 9 -129 11 -135 2 -7 6 -30 9 -52 16 -123 61 -296
116 -440 221 -587 667 -1102 1174 -1357 93 -47 266 -111 331 -122 17 -3 41 -9
55 -12 14 -4 84 -8 155 -10 263 -7 435 55 1000 356 44 24 85 46 90 50 6 4 46
27 90 50 44 24 96 52 115 63 62 35 392 201 475 239 305 140 676 254 925 283
30 4 69 9 85 12 46 8 394 10 445 2 25 -4 70 -10 100 -13 97 -11 336 -66 406
-93 23 -8 12 10 -101 182 -193 291 -434 551 -635 685 -13 8 -35 24 -49 35 -14
11 -35 26 -46 32 -36 23 -252 127 -285 138 -3 1 -17 7 -32 13 -84 35 -308 83
-458 98 -97 9 -378 6 -488 -6 -53 -6 -117 -12 -142 -14 -59 -5 -141 -16 -160
-21 -8 -2 -37 -7 -65 -11 -247 -31 -486 -100 -900 -259 -298 -115 -429 -160
-545 -185 -57 -12 -65 -14 -165 -29 -59 -9 -290 -7 -331 2 -12 3 -39 8 -60 11
-156 25 -333 96 -579 230 -49 27 -209 135 -300 204 -86 65 -129 99 -229 181
-18 16 -19 13 -12 -107z"/>
</g>
</svg>
